<?xml version="1.0" standalone="no"?>
<!DOCTYPE svg PUBLIC "-//W3C//DTD SVG 20010904//EN"
 "http://www.w3.org/TR/2001/REC-SVG-20010904/DTD/svg10.dtd">
<svg version="1.0" xmlns="http://www.w3.org/2000/svg"
 width="419.000000pt" height="419.000000pt" viewBox="0 0 419.000000 419.000000"
 preserveAspectRatio="xMidYMid meet">
<metadata>
Created by potrace 1.14, written by Peter Selinger 2001-2017
</metadata>
<g transform="translate(0.000000,419.000000) scale(0.100000,-0.100000)"
fill="#000000" stroke="none">
<path d="M1690 4153 c-488 -21 -905 -55 -1029 -84 -265 -62 -488 -285 -550
-550 -21 -90 -53 -413 -73 -749 -16 -267 -16 -1096 0 -1360 20 -314 50 -647
68 -730 19 -92 87 -235 148 -312 97 -121 249 -219 403 -257 161 -40 715 -79
1258 -88 493 -8 936 11 1390 57 205 21 271 37 382 93 143 73 252 186 328 342
48 100 69 186 85 350 75 790 78 1539 10 2330 -25 282 -39 355 -95 470 -75 156
-181 264 -336 345 -125 65 -266 88 -734 120 -382 26 -952 36 -1255 23z m1225
-117 c495 -38 583 -54 722 -131 90 -50 218 -178 268 -268 77 -139 93 -229 131
-722 21 -283 30 -1089 15 -1380 -14 -263 -47 -666 -61 -751 -26 -155 -90 -276
-209 -394 -92 -91 -192 -153 -301 -183 -222 -63 -1334 -108 -1941 -78 -340 17
-716 51 -804 72 -244 60 -446 247 -520 481 -26 82 -43 224 -72 598 -14 179
-18 345 -18 810 0 596 8 776 50 1183 19 179 28 213 83 327 38 79 61 110 132
181 142 144 265 197 511 223 126 13 480 39 669 50 186 10 1148 -3 1345 -18z"/>
<path d="M1395 3954 c-278 -18 -521 -43 -595 -60 -228 -52 -418 -228 -495
-458 -27 -80 -53 -314 -75 -666 -13 -214 -13 -1136 0 -1350 17 -278 49 -582
66 -640 70 -239 267 -431 495 -485 67 -16 391 -47 669 -65 252 -15 1054 -13
1320 5 335 22 536 44 620 66 187 50 346 180 433 354 61 122 71 173 103 540 22
240 31 1275 15 1554 -37 618 -64 744 -196 908 -93 115 -236 205 -375 237 -77
18 -309 40 -620 61 -278 18 -1087 18 -1365 -1z m315 -768 c113 -27 192 -70
255 -137 65 -71 93 -139 108 -267 28 -240 -60 -427 -223 -476 l-44 -13 57 -18
c118 -37 210 -132 250 -259 29 -93 31 -314 3 -416 -52 -190 -184 -313 -382
-355 -53 -11 -150 -15 -416 -15 l-348 0 0 991 0 991 333 -4 c272 -4 345 -8
407 -22z m889 -8 c5 -18 51 -168 102 -333 50 -165 94 -306 98 -312 4 -7 45
121 91 285 46 163 90 318 98 345 l14 47 179 0 c125 0 179 -3 179 -11 0 -6 -83
-272 -185 -591 l-185 -579 0 -400 0 -399 -195 0 -195 0 0 388 0 388 -190 588
c-104 323 -190 594 -190 602 0 11 33 14 184 14 l184 0 11 -32z m761 -2123 l0
-65 -1215 0 -1215 0 0 65 0 65 1215 0 1215 0 0 -65z"/>
<path d="M1370 2671 l0 -261 75 0 c209 0 275 64 275 265 0 183 -61 244 -251
253 l-99 5 0 -262z"/>
<path d="M1375 2129 c-3 -8 -4 -149 -3 -314 l3 -300 90 2 c115 3 169 18 210
59 50 49 70 120 70 244 -1 229 -64 303 -270 317 -76 5 -96 3 -100 -8z"/>
</g>
</svg>
